<svg xmlns="http://www.w3.org/2000/svg" viewBox="0 0 292.65 220.63"><g id="Camada_2" data-name="Camada 2"><g id="Camada_1-2" data-name="Camada 1"><path d="M71.15,138.52c6.6-5.7,13.3-11.3,19.8-17.1,14.2-12.6,28.3-25.3,42.4-37.9,1.6-1.5,3.3-2.8,5.7-1.8,3.5,3.7,2.3,8.6,3.1,13.1,1.6.7,3.1,1.4,4.8,2.2,0,1.6-.1,2.9,0,4.3.3,4.5,4.3,8.8,8.7,8.7,13.2-.1,26-2.3,37.9-8.3a23,23,0,0,0,5.2-3.6c1.8-1.5,2.1-2.8,1.9-6.3a30.54,30.54,0,0,0-5.1-2.7c-8.2-2.3-16.5-4.5-24.8-6.6-7-1.8-14-3.3-20.5-6.7-6.8-3.5-10.7-9-10.7-16.6a31,31,0,0,1,5-16.6,65,65,0,0,1,21.1-20.3,165.87,165.87,0,0,1,45.8-19.6c9.2-2.3,18.6-3.7,28.1-1.9,1.1.2,2.2.4,3.3.7,7,1.9,10,5.6,9.5,14.2-.4,7.8-4.3,13.5-11,17a63.55,63.55,0,0,1-12.1,4.8c-2.5.7-5.4.1-7.8.1-2-1.8-3.6-3.3-5.4-5,1.4-2.7,2.6-5.1,3.8-7.5-15.5-2.2-53.2,17.7-57.3,30.2,1.2,2.2,3.5,2.6,5.6,3.1,10.7,2.5,21.5,4.9,32.3,7.5a50.52,50.52,0,0,1,16.4,7c11.8,8,14.2,19.5,5.9,31.5-5.6,8.1-13.5,13.5-22.2,17.8-10,4.8-20.2,8.8-31.3,10.7a64.78,64.78,0,0,1-28.4-1.2c-7.8-2.2-14.2-9-13.3-18.7a8.2,8.2,0,0,0-.4-1.1c-3.1,2.4-6.1,4.7-9,7.2a755.13,755.13,0,0,0-61.5,58.5,29.43,29.43,0,0,0-3,4.2c-4.9,7.8-9.4,15.9-14.7,23.4A57.89,57.89,0,0,1,27.55,217c-5.5,4.4-12.1,4.4-18.4,2-5.3-2-6.6-6.9-6.7-11.9-.1-6.8,1.9-13.2,4.8-19.4,5.1-10.8,12.2-20.2,20.4-28.9,4.9-5.2,10.1-10,15-15.2a35.19,35.19,0,0,0,5.9-8c6.2-11.2,12.1-22.6,18.1-33.9.5-1,.9-1.9,1.7-3.6-2.3,2.2-4.1,3.8-5.8,5.5-7.6,7.7-15.3,15.4-24.1,21.8a47,47,0,0,1-19.7,8.5c-8.7,1.6-18.3-6-18.7-15-.5-11.4,2.8-21.8,8.6-31.6q15.45-26.25,30.7-52.5c3.3-5.7,6.3-11.6,9.6-17.3,1.4-2.5,3.1-4.9,6.8-5.4a39.46,39.46,0,0,1,4.9,2.6c5.3,3.6,6.7,7.6,3.9,13.5-4.7,10-9.8,19.8-14.9,29.7-6.6,12.8-13.4,25.5-20,38.4-1.4,2.8-3.1,5.7-2.7,9.1,2.1,1.2,3.8.2,5.3-.8,4.4-3,9-5.9,13-9.4,23.5-20.1,44.7-42.4,61.9-68.2,2.2-3.3,4.5-6.6,7-9.7,6.6-8.1,15.4-7.9,21.9.6.9,2.8-.6,5-2,7.2-5.1,8.7-10.3,17.4-15.4,26-16,27.2-32,54.5-46.4,82.7-.7,1.4-1.4,2.8-2.1,4.3A1.33,1.33,0,0,1,71.15,138.52Z"/><path d="M290.75,113.92c.4,8.9-9,22.3-21.2,23.7-6.5.7-12.1-1.8-12.2-10.4,0-3.8.6-7.5,2.7-10.7,4-6.2,8.9-11.5,16.6-12.8a18.64,18.64,0,0,1,8.4.9C289.45,106,290.85,108.72,290.75,113.92Z"/><path d="M128.55,196.12a12.21,12.21,0,0,1-12.3-11.9,12.25,12.25,0,1,1,24.5,0C140.85,190.72,135.15,196.12,128.55,196.12Zm9.4-12a9.3,9.3,0,0,0-9.5-9.7,9.41,9.41,0,0,0-9.5,9.4,9.78,9.78,0,0,0,9.4,10A9.56,9.56,0,0,0,138,184.12Z"/><path d="M292.55,172.82c0,.6.1,1.1.1,2h-12.2v8h10.1c.1.6.1,1.1.2,2h-9.3v9h10.7a19.27,19.27,0,0,1,.5,2h-15.2v-23Z"/><path d="M176.35,185.32c1.6,3.4,3.1,6.8,4.8,10.4-.9.1-1.6.2-2.6.3-1.8-3.6-3.5-7.2-5.2-11.3h-2.9v11c-1,.1-1.6.2-2,.2v-24.1a77.64,77.64,0,0,1,7.8.7,5.67,5.67,0,0,1,4.9,5.4,6.19,6.19,0,0,1-3.6,6.4A4,4,0,0,1,176.35,185.32Zm-5.9-3c6.7.7,8.4-.5,7.8-5.5-2-2.6-4.7-2.7-7.8-2.1Z"/><path d="M160.35,171.82h2.3V190a4.6,4.6,0,0,1-1,2.4c-1.7,2.7-5.8,4-9.7,3.2a6.88,6.88,0,0,1-5.9-6.7c-.3-5.6-.1-11.2-.1-16.9.8-.1,1.4-.1,2.5-.2,0,5.4-.1,10.6,0,15.8.1,4,3,6.4,6.9,5.8,3.1-.5,4.9-2.6,5-6C160.45,182.32,160.35,177.22,160.35,171.82Z"/><path d="M208,175.82c-6.4-2.7-8.9-1.5-8.2,4.5,1.3.6,2.8,1.4,4.3,2.1a17.55,17.55,0,0,1,4.2,2.4c2,1.7,3,4,2,6.7a6.54,6.54,0,0,1-5.8,4.6c-3.2.3-5.2-.4-8.5-3.4a15.26,15.26,0,0,0,1.1-1.6,34.7,34.7,0,0,0,4.6,2.5,5,5,0,0,0,5.8-2.2c1-2.2,0-4.5-2.6-5.8-1.1-.6-2.3-.9-3.4-1.4-4.2-1.8-5.8-4.8-4.4-8.5,1.2-3.2,5.3-4.7,9.2-3.1.9.4,1.7,1,2.8,1.6A15.26,15.26,0,0,0,208,175.82Z"/><path d="M92.75,171.92l3-.3c2.3,3.8,4.6,7.6,7.1,11.8,2.4-4,4.7-7.8,7-11.6h3.2c-2.1,3.6-3.9,7-6,10.2a13.79,13.79,0,0,0-2.6,9.4c.1,1.2,0,2.5,0,3.9l-2.8.3c-.1-.6-.4-1.1-.3-1.5.9-5.9-1.3-10.9-4.6-15.6C95.35,176.52,94.25,174.32,92.75,171.92Z"/><path d="M233.25,171.82h3.2c2.3,4.2,4.5,8,7,12.1,2.4-4,4.7-7.8,7-11.1h2.6a1.75,1.75,0,0,1-.1.5c-1.8,3.1-3.5,6.3-5.5,9.3a13,13,0,0,0-2.4,9.1c.1,1.2,0,2.5,0,4-1,.1-1.9.1-2.7.2-.2-.5-.4-.7-.4-.9,1.1-6.5-1.8-11.8-5.3-16.9A56.61,56.61,0,0,1,233.25,171.82Z"/><path d="M259.45,193.82h12.2a7.74,7.74,0,0,1,.4,2h-14.6v-23.5c.4,0,1.1-.1,2-.2Z"/><path d="M232.45,172.82v2h-8v21.1s-1.7.1-3,.1v-21.2h-7.6c-.1-1.1-.2-2-.2-2Z"/></g></g></svg>